G04*
G04 #@! TF.GenerationSoftware,Altium Limited,Altium Designer,24.2.2 (26)*
G04*
G04 Layer_Color=0*
%FSLAX45Y45*%
%MOMM*%
G71*
G04*
G04 #@! TF.SameCoordinates,7AAD8A9D-A8BC-4A06-A169-5CC17A717069*
G04*
G04*
G04 #@! TF.FilePolarity,Positive*
G04*
G01*
G75*
%ADD35C,0.02540*%
D35*
X14125610Y13550900D02*
X14271078Y13696371D01*
X14319228Y13737804D01*
X14373010Y13771600D01*
X14431232Y13797002D01*
X14492587Y13813441D01*
X14555710Y13820554D01*
X14619185Y13818178D01*
X14681598Y13806369D01*
X14741554Y13785390D01*
X14797716Y13755708D01*
X14848824Y13717989D01*
X14893739Y13673073D01*
X14931459Y13621964D01*
X14961139Y13565805D01*
X14982120Y13505849D01*
X14993929Y13443436D01*
X14996303Y13379959D01*
X14989191Y13316838D01*
X14972751Y13255482D01*
X14947350Y13197261D01*
X14913554Y13143477D01*
X14872121Y13095329D01*
X14155916Y12379124D01*
X14096135Y12312230D01*
X14044221Y12239064D01*
X14000826Y12160546D01*
X13966495Y12077662D01*
X13941658Y11991456D01*
X13926631Y11903010D01*
X13921600Y11813438D01*
Y7478262D01*
X13926631Y7388690D01*
X13941658Y7300245D01*
X13966495Y7214039D01*
X14000826Y7131155D01*
X14044221Y7052636D01*
X14096135Y6979470D01*
X14155916Y6912576D01*
X14872121Y6196371D01*
X14912202Y6150047D01*
X14945206Y6098442D01*
X14970448Y6042630D01*
X14987408Y5983767D01*
X14995728Y5923078D01*
X14995235Y5861824D01*
X14985945Y5801277D01*
X14968045Y5742694D01*
X14941910Y5687293D01*
X14908081Y5636224D01*
X14867262Y5590549D01*
X14820303Y5551217D01*
X14768176Y5519043D01*
X14711964Y5494698D01*
X14662337Y5472080D01*
X14617622Y5440853D01*
X14579301Y5402045D01*
X14548640Y5356941D01*
X14526649Y5307031D01*
X14514062Y5253965D01*
X14511285Y5199496D01*
X14508749Y5136789D01*
X14496190Y5075301D01*
X14473929Y5016624D01*
X14442545Y4962277D01*
X14402850Y4913667D01*
X14355872Y4872054D01*
X14302827Y4838514D01*
X14245090Y4813917D01*
X14184155Y4798900D01*
X14121600Y4793850D01*
X14001601D01*
X13985994Y4792313D01*
X13970985Y4787761D01*
X13957156Y4780367D01*
X13945033Y4770419D01*
X13935081Y4758296D01*
X13927690Y4744465D01*
X13923138Y4729458D01*
X13921600Y4713850D01*
Y4695850D01*
X13920064Y4680243D01*
X13915511Y4665235D01*
X13908118Y4651404D01*
X13898169Y4639282D01*
X13886046Y4629333D01*
X13872215Y4621939D01*
X13857208Y4617387D01*
X13841600Y4615850D01*
X7801601D01*
X7785993Y4617387D01*
X7770986Y4621939D01*
X7757155Y4629333D01*
X7745032Y4639282D01*
X7735083Y4651404D01*
X7727690Y4665235D01*
X7723138Y4680243D01*
X7721601Y4695850D01*
Y4713850D01*
X7720063Y4729458D01*
X7715511Y4744465D01*
X7708118Y4758296D01*
X7698169Y4770419D01*
X7686046Y4780367D01*
X7672215Y4787761D01*
X7657208Y4792313D01*
X7641600Y4793850D01*
X7521600D01*
X7459046Y4798900D01*
X7398111Y4813917D01*
X7340373Y4838514D01*
X7287329Y4872054D01*
X7240351Y4913667D01*
X7200656Y4962277D01*
X7169272Y5016624D01*
X7147011Y5075301D01*
X7134451Y5136789D01*
X7131915Y5199496D01*
X7129140Y5253965D01*
X7116550Y5307031D01*
X7094561Y5356941D01*
X7063900Y5402045D01*
X7025578Y5440853D01*
X6980865Y5472080D01*
X6931236Y5494698D01*
X6875026Y5519043D01*
X6822899Y5551217D01*
X6775938Y5590549D01*
X6735120Y5636224D01*
X6701292Y5687293D01*
X6675157Y5742694D01*
X6657257Y5801277D01*
X6647965Y5861824D01*
X6647474Y5923078D01*
X6655794Y5983767D01*
X6672751Y6042630D01*
X6697995Y6098442D01*
X6730999Y6150047D01*
X6771080Y6196371D01*
X7487286Y6912576D01*
X7547065Y6979470D01*
X7598980Y7052636D01*
X7642375Y7131155D01*
X7676707Y7214039D01*
X7701543Y7300245D01*
X7716570Y7388690D01*
X7721601Y7478262D01*
Y11813438D01*
X7716570Y11903010D01*
X7701543Y11991456D01*
X7676707Y12077662D01*
X7642375Y12160546D01*
X7598980Y12239064D01*
X7547065Y12312230D01*
X7487286Y12379124D01*
X6771080Y13095329D01*
X6729647Y13143477D01*
X6695851Y13197261D01*
X6670450Y13255482D01*
X6654010Y13316838D01*
X6646898Y13379959D01*
X6649273Y13443436D01*
X6661082Y13505849D01*
X6682061Y13565805D01*
X6711743Y13621964D01*
X6749463Y13673073D01*
X6794378Y13717989D01*
X6845487Y13755708D01*
X6901646Y13785390D01*
X6961603Y13806369D01*
X7024015Y13818178D01*
X7087492Y13820554D01*
X7150613Y13813441D01*
X7211969Y13797002D01*
X7270190Y13771600D01*
X7323974Y13737804D01*
X7372121Y13696371D01*
X7517591Y13550900D01*
X7535173Y13536382D01*
X7555183Y13525452D01*
X7576900Y13518504D01*
X7599540Y13515788D01*
X7622284Y13517406D01*
X7644311Y13523294D01*
X7664827Y13533244D01*
X7683092Y13546893D01*
X7698443Y13563753D01*
X7710330Y13583212D01*
X7718320Y13604567D01*
X7722127Y13627048D01*
X7727957Y13662560D01*
X7740056Y13696452D01*
X7758033Y13727628D01*
X8002643Y14075275D01*
X8041216Y14121931D01*
X8086545Y14162054D01*
X8137537Y14194682D01*
X8192964Y14219025D01*
X8251490Y14234496D01*
X8311705Y14240724D01*
X8372160Y14237560D01*
X8431395Y14225076D01*
X8487986Y14203577D01*
X8540567Y14173579D01*
X8587872Y14135805D01*
X8628763Y14091165D01*
X8662252Y14040736D01*
X8687534Y13985732D01*
X8703999Y13927477D01*
X8711250Y13867377D01*
X8716496Y13829585D01*
X8728821Y13793478D01*
X8747778Y13760371D01*
X8772678Y13731465D01*
X8802614Y13707812D01*
X8836496Y13690274D01*
X8873093Y13679489D01*
X8911071Y13675851D01*
X12732130D01*
X12770108Y13679489D01*
X12806705Y13690274D01*
X12840588Y13707812D01*
X12870523Y13731465D01*
X12895424Y13760371D01*
X12914380Y13793478D01*
X12926706Y13829585D01*
X12931950Y13867377D01*
X12939203Y13927477D01*
X12955667Y13985732D01*
X12980948Y14040736D01*
X13014438Y14091165D01*
X13055328Y14135805D01*
X13102635Y14173579D01*
X13155215Y14203577D01*
X13211806Y14225076D01*
X13271040Y14237560D01*
X13331496Y14240724D01*
X13391711Y14234496D01*
X13450237Y14219025D01*
X13505664Y14194682D01*
X13556657Y14162054D01*
X13601984Y14121931D01*
X13640558Y14075275D01*
X13885168Y13727628D01*
X13903145Y13696452D01*
X13915244Y13662560D01*
X13921074Y13627048D01*
X13924881Y13604567D01*
X13932870Y13583212D01*
X13944759Y13563753D01*
X13960110Y13546893D01*
X13978374Y13533244D01*
X13998889Y13523294D01*
X14020918Y13517406D01*
X14043661Y13515788D01*
X14066301Y13518504D01*
X14088017Y13525452D01*
X14108028Y13536382D01*
X14125610Y13550900D01*
M02*
