G04*
G04 #@! TF.GenerationSoftware,Altium Limited,Altium Designer,24.2.2 (26)*
G04*
G04 Layer_Physical_Order=1*
G04 Layer_Color=255*
%FSLAX45Y45*%
%MOMM*%
G71*
G04*
G04 #@! TF.SameCoordinates,7AAD8A9D-A8BC-4A06-A169-5CC17A717069*
G04*
G04*
G04 #@! TF.FilePolarity,Positive*
G04*
G01*
G75*
%ADD14C,0.25400*%
%ADD15R,0.65000X0.90000*%
%ADD16R,1.91000X1.37000*%
%ADD17R,0.90000X0.65000*%
%ADD28R,1.49860X1.49860*%
%ADD29C,1.49860*%
%ADD30R,1.87960X1.87960*%
%ADD31C,1.87960*%
%ADD32R,1.10000X1.10000*%
%ADD33C,1.10000*%
%ADD34C,4.50000*%
D14*
X12443176Y9738502D02*
X12573000D01*
X12334240D02*
X12443176D01*
X11268598Y8860678D02*
Y9186022D01*
X11277600Y10312400D02*
X11684000D01*
X11074400D02*
X11277600D01*
X11252200Y8382000D02*
X11268598Y8860678D01*
X9296400Y9025702D02*
Y10795000D01*
X9448800Y10947400D01*
X9695180D01*
X9842500Y10800080D01*
Y10706100D02*
Y10800080D01*
X10312400Y9985898D02*
X10363200D01*
X9842500Y10455798D02*
X10312400Y9985898D01*
X9842500Y10455798D02*
Y10706100D01*
X11268598Y9186022D02*
Y9309100D01*
Y9186022D02*
X11379200Y9075420D01*
X11671158D01*
X12334240Y9738502D01*
X11823700Y10452100D02*
Y11214100D01*
X11684000Y10312400D02*
X11823700Y10452100D01*
X13474699Y9436100D02*
Y9558020D01*
X13037679D02*
X13474699D01*
X12573000Y10022698D02*
X13037679Y9558020D01*
X12077700Y11087100D02*
X12326478Y10838322D01*
Y9855200D02*
Y10838322D01*
Y9855200D02*
X12443176Y9738502D01*
X9474200Y10718800D02*
X9588500Y10833100D01*
X9474200Y10163922D02*
Y10718800D01*
Y10163922D02*
X10435702Y9202420D01*
Y8407400D02*
Y9202420D01*
X11413602Y9309100D02*
Y10176398D01*
X11277600Y10312400D02*
X11413602Y10176398D01*
X10792460Y8382000D02*
X11107202D01*
X10726420Y8315960D02*
X10792460Y8382000D01*
X10331338Y8315960D02*
X10726420D01*
X10290698Y8356600D02*
X10331338Y8315960D01*
X10290698Y8356600D02*
Y8407400D01*
X10768162Y10028199D02*
X11074400D01*
X10665460Y10130902D02*
X10768162Y10028199D01*
X10363200Y10130902D02*
X10665460D01*
D15*
X11252200Y8382000D02*
D03*
X11107202D02*
D03*
X10435702Y8407400D02*
D03*
X10290698D02*
D03*
X11413602Y9309100D02*
D03*
X11268598D02*
D03*
D16*
X11074400Y10028199D02*
D03*
Y10312400D02*
D03*
X12573000Y9738502D02*
D03*
Y10022698D02*
D03*
D17*
X10363200Y9985898D02*
D03*
Y10130902D02*
D03*
D28*
X9588500Y10833100D02*
D03*
X12077700Y11087100D02*
D03*
D29*
X9842500Y10706100D02*
D03*
X9588500Y10579100D02*
D03*
X11823700Y11214100D02*
D03*
X12077700Y11341100D02*
D03*
D30*
X8191500Y9969500D02*
D03*
X13474699Y9436100D02*
D03*
D31*
X8191500Y9715500D02*
D03*
Y9461500D02*
D03*
X13474699Y9690100D02*
D03*
Y9944100D02*
D03*
D32*
X9296400Y8775700D02*
D03*
D33*
Y9025702D02*
D03*
D34*
X14571599Y5895848D02*
D03*
Y13395848D02*
D03*
X7071599Y5895848D02*
D03*
Y13395848D02*
D03*
M02*
